<svg width="45" height="46" viewBox="0 0 45 46" fill="none" xmlns="http://www.w3.org/2000/svg">
<path d="M22.5 0.292969C10.0937 0.292969 0 10.3857 0 22.793C0 35.2003 10.0937 45.293 22.5 45.293C34.9073 45.293 45 35.2003 45 22.793C45 10.3857 34.9073 0.292969 22.5 0.292969ZM29.3478 13.9886H26.1293C24.2335 13.9886 23.4783 14.4337 23.4783 15.7554V18.8799H29.3478L28.3696 23.7712H23.4783V36.4886H17.6087V23.7712H14.6739V18.8799H17.6087V16.1662C17.6087 12.0331 19.258 9.09732 24.0466 9.09732C26.6116 9.09732 29.3478 10.0756 29.3478 10.0756V13.9886Z" fill="white"/>
</svg>
