<svg width="50" height="50" viewBox="0 0 50 50" fill="none" xmlns="http://www.w3.org/2000/svg">
<path d="M46.6665 11.5616C45.0715 12.27 43.3582 12.7466 41.5599 12.9616C43.3965 11.8616 44.8049 10.12 45.4682 8.04331C43.7515 9.06164 41.8482 9.80164 39.8215 10.2016C38.1999 8.47331 35.8899 7.39331 33.3332 7.39331C28.4232 7.39331 24.4432 11.375 24.4432 16.2833C24.4432 16.98 24.5232 17.66 24.6732 18.3083C17.2849 17.9383 10.7349 14.3983 6.34821 9.01831C5.58488 10.3316 5.14654 11.8583 5.14654 13.49C5.14654 16.5733 6.71488 19.295 9.09988 20.8883C7.64321 20.8416 6.27154 20.4416 5.07321 19.7766C5.07321 19.815 5.07321 19.85 5.07321 19.8883C5.07321 24.1966 8.13654 27.79 12.2049 28.605C11.4599 28.8083 10.6732 28.9166 9.86154 28.9166C9.28988 28.9166 8.73154 28.86 8.18988 28.7583C9.32154 32.29 12.6049 34.8616 16.4949 34.9333C13.4532 37.3183 9.61988 38.74 5.45321 38.74C4.73654 38.74 4.02821 38.6983 3.33154 38.615C7.26654 41.1366 11.9382 42.6083 16.9599 42.6083C33.3132 42.6083 42.2532 29.0616 42.2532 17.3133C42.2532 16.9283 42.2449 16.545 42.2282 16.1633C43.9665 14.9083 45.4749 13.3433 46.6665 11.5616Z" fill="white"/>
</svg>
