<svg width="45" height="45" viewBox="0 0 45 45" fill="none" xmlns="http://www.w3.org/2000/svg">
<path d="M39.6429 0H5.35714C2.4 0 0 2.4 0 5.35714V39.6429C0 42.6 2.4 45 5.35714 45H39.6429C42.6 45 45 42.6 45 39.6429V5.35714C45 2.4 42.6 0 39.6429 0ZM13.9286 17.1429V37.5H7.5V17.1429H13.9286ZM7.5 11.2179C7.5 9.71786 8.78571 8.57143 10.7143 8.57143C12.6429 8.57143 13.8536 9.71786 13.9286 11.2179C13.9286 12.7179 12.7286 13.9286 10.7143 13.9286C8.78571 13.9286 7.5 12.7179 7.5 11.2179ZM37.5 37.5H31.0714C31.0714 37.5 31.0714 27.5786 31.0714 26.7857C31.0714 24.6429 30 22.5 27.3214 22.4571H27.2357C24.6429 22.4571 23.5714 24.6643 23.5714 26.7857C23.5714 27.7607 23.5714 37.5 23.5714 37.5H17.1429V17.1429H23.5714V19.8857C23.5714 19.8857 25.6393 17.1429 29.7964 17.1429C34.05 17.1429 37.5 20.0679 37.5 25.9929V37.5Z" fill="white"/>
</svg>
