<svg width="46" height="37" viewBox="0 0 46 37" fill="none" xmlns="http://www.w3.org/2000/svg">
<path d="M45.3315 4.7218C43.6753 5.45735 41.8961 5.95233 40.0287 6.17559C41.9359 5.03332 43.3983 3.22474 44.0872 1.06829C42.3045 2.12574 40.3281 2.89418 38.2235 3.30954C36.5396 1.51481 34.1408 0.393311 31.4859 0.393311C26.3873 0.393311 22.2544 4.52796 22.2544 9.62488C22.2544 10.3483 22.3374 11.0544 22.4932 11.7277C14.821 11.3435 8.01932 7.66745 3.46412 2.08075C2.67145 3.44454 2.21628 5.02986 2.21628 6.72422C2.21628 9.92602 3.84487 12.7523 6.32151 14.4068C4.80887 14.3583 3.3845 13.943 2.14013 13.2524C2.14013 13.2922 2.14013 13.3286 2.14013 13.3684C2.14013 17.8423 5.32116 21.5736 9.5458 22.42C8.77218 22.6311 7.95529 22.7436 7.11244 22.7436C6.5188 22.7436 5.93902 22.6848 5.37654 22.5792C6.55169 26.2465 9.96117 28.917 14.0006 28.9914C10.8421 31.4681 6.86148 32.9444 2.53473 32.9444C1.79053 32.9444 1.05498 32.9011 0.331543 32.8146C4.41773 35.4331 9.26889 36.9613 14.4835 36.9613C31.4652 36.9613 40.7486 22.8942 40.7486 10.6945C40.7486 10.2947 40.74 9.8966 40.7227 9.50027C42.5278 8.19705 44.0941 6.57192 45.3315 4.7218Z" fill="white"/>
</svg>
